<svg width="71" height="71" viewBox="0 0 71 71" fill="none" xmlns="http://www.w3.org/2000/svg">
<path d="M35.5 70C44.8888 70 52.5 68.2091 52.5 66C52.5 63.7909 44.8888 62 35.5 62C26.1112 62 18.5 63.7909 18.5 66C18.5 68.2091 26.1112 70 35.5 70Z" fill="#B99E9E" fill-opacity="0.19"/>
<path d="M23.4147 3.65264L21.6488 4.59159C20.1859 5.36943 19.6306 7.18593 20.4084 8.64884L32.6147 31.6055C33.3925 33.0684 35.209 33.6238 36.6719 32.8459L38.4378 31.907C39.9007 31.1291 40.4561 29.3126 39.6783 27.8497L27.472 4.89307C26.6941 3.43015 24.8777 2.8748 23.4147 3.65264Z" fill="#7DBCA2"/>
<path d="M48.4147 8.34736L46.6488 7.40841C45.1859 6.63057 43.3694 7.18593 42.5916 8.64884L30.3853 31.6055C29.6075 33.0684 30.1628 34.8849 31.6258 35.6627L33.3916 36.6017C34.8546 37.3795 36.6711 36.8242 37.4489 35.3613L49.6552 12.4046C50.433 10.9417 49.8777 9.1252 48.4147 8.34736Z" fill="#58B195"/>
<path d="M35.5 67C45.4411 67 53.5 58.9411 53.5 49C53.5 39.0589 45.4411 31 35.5 31C25.5589 31 17.5 39.0589 17.5 49C17.5 58.9411 25.5589 67 35.5 67Z" fill="url(#paint0_linear_73_302)" stroke="#58B195" stroke-width="2"/>
<path d="M35.5 60C41.5751 60 46.5 55.0751 46.5 49C46.5 42.9249 41.5751 38 35.5 38C29.4249 38 24.5 42.9249 24.5 49C24.5 55.0751 29.4249 60 35.5 60Z" fill="url(#paint1_linear_73_302)" stroke="#9FC2B7" stroke-width="2"/>
<path d="M35.5 45.3C39.366 45.3 42.5 44.2703 42.5 43C42.5 41.7298 39.366 40.7 35.5 40.7C31.634 40.7 28.5 41.7298 28.5 43C28.5 44.2703 31.634 45.3 35.5 45.3Z" fill="white" fill-opacity="0.62"/>
<path d="M35.5 58.6C38.2614 58.6 40.5 57.8836 40.5 57C40.5 56.1163 38.2614 55.4 35.5 55.4C32.7386 55.4 30.5 56.1163 30.5 57C30.5 57.8836 32.7386 58.6 35.5 58.6Z" fill="#CFEAE2" fill-opacity="0.43"/>
<path d="M27 65C30.3333 62.3333 33.1667 61.6667 35.5 63C37.8333 61.6667 40.6667 62.3333 44 65C42.6667 63 39.8333 62.3333 35.5 63C31.1667 62.3333 28.3333 63 27 65Z" fill="url(#paint2_linear_73_302)"/>
<path d="M35.5 67.1C36.5493 67.1 37.4 66.5628 37.4 65.9C37.4 65.2373 36.5493 64.7 35.5 64.7C34.4507 64.7 33.6 65.2373 33.6 65.9C33.6 66.5628 34.4507 67.1 35.5 67.1Z" fill="#B99E9E"/>
<path d="M32.4595 51.4069L34.2368 51.2228C34.2876 51.6249 34.4378 51.9444 34.6875 52.1813C34.9372 52.4141 35.2249 52.5305 35.5508 52.5305C35.9232 52.5305 36.2384 52.3802 36.4966 52.0798C36.7547 51.7751 36.8838 51.3181 36.8838 50.7087C36.8838 50.1374 36.7547 49.71 36.4966 49.4265C36.2427 49.1387 35.9105 48.9948 35.5 48.9948C34.988 48.9948 34.5288 49.2212 34.1226 49.674L32.6753 49.4645L33.5894 44.6213H38.3057V46.2907H34.9414L34.6621 47.8713C35.0599 47.6724 35.4661 47.5729 35.8809 47.5729C36.6722 47.5729 37.3429 47.8607 37.8931 48.4362C38.4432 49.0117 38.7183 49.7586 38.7183 50.6769C38.7183 51.4429 38.4961 52.1263 38.0518 52.7272C37.4466 53.5482 36.6066 53.9587 35.5317 53.9587C34.6727 53.9587 33.9723 53.728 33.4307 53.2668C32.889 52.8055 32.5653 52.1856 32.4595 51.4069Z" fill="#58B195"/>
<path d="M32.4595 51.4069L32.4234 51.0588L32.064 51.096L32.1127 51.454L32.4595 51.4069ZM34.2368 51.2228L34.5841 51.179L34.5412 50.8394L34.2008 50.8747L34.2368 51.2228ZM34.6875 52.1813L34.4465 52.4352L34.4488 52.4373L34.6875 52.1813ZM36.4966 52.0798L36.7621 52.3079L36.7636 52.306L36.4966 52.0798ZM36.4966 49.4265L36.2341 49.658L36.2378 49.6621L36.4966 49.4265ZM34.1226 49.674L34.0724 50.0204L34.2579 50.0472L34.3831 49.9077L34.1226 49.674ZM32.6753 49.4645L32.3314 49.3996L32.2636 49.7586L32.6252 49.8109L32.6753 49.4645ZM33.5894 44.6213V44.2713H33.2992L33.2454 44.5564L33.5894 44.6213ZM38.3057 44.6213H38.6557V44.2713H38.3057V44.6213ZM38.3057 46.2907V46.6407H38.6557V46.2907H38.3057ZM34.9414 46.2907V45.9407H34.6478L34.5967 46.2298L34.9414 46.2907ZM34.6621 47.8713L34.3174 47.8104L34.1964 48.4954L34.8186 48.1843L34.6621 47.8713ZM37.8931 48.4362L37.6401 48.6781L37.8931 48.4362ZM38.0518 52.7272L37.7703 52.5191L37.77 52.5196L38.0518 52.7272ZM32.4595 51.4069L32.4955 51.7551L34.2729 51.571L34.2368 51.2228L34.2008 50.8747L32.4234 51.0588L32.4595 51.4069ZM34.2368 51.2228L33.8896 51.2667C33.9486 51.734 34.1283 52.1331 34.4466 52.4352L34.6875 52.1813L34.9284 51.9275C34.7474 51.7556 34.6266 51.5157 34.5841 51.179L34.2368 51.2228ZM34.6875 52.1813L34.4488 52.4373C34.7599 52.7273 35.1318 52.8805 35.5508 52.8805V52.5305V52.1805C35.318 52.1805 35.1144 52.1008 34.9262 51.9253L34.6875 52.1813ZM35.5508 52.5305V52.8805C36.0324 52.8805 36.4422 52.6801 36.7621 52.3079L36.4966 52.0798L36.2311 51.8517C36.0346 52.0804 35.814 52.1805 35.5508 52.1805V52.5305ZM36.4966 52.0798L36.7636 52.306C37.0972 51.9122 37.2338 51.3591 37.2338 50.7087H36.8838H36.5338C36.5338 51.277 36.4122 51.6379 36.2295 51.8535L36.4966 52.0798ZM36.8838 50.7087H37.2338C37.2338 50.092 37.0953 49.5641 36.7554 49.1908L36.4966 49.4265L36.2378 49.6621C36.4142 49.8558 36.5338 50.1828 36.5338 50.7087H36.8838ZM36.4966 49.4265L36.759 49.1949C36.4336 48.8261 36.003 48.6448 35.5 48.6448V48.9948V49.3448C35.818 49.3448 36.0517 49.4513 36.2341 49.658L36.4966 49.4265ZM35.5 48.9948V48.6448C34.8698 48.6448 34.321 48.9287 33.862 49.4403L34.1226 49.674L34.3831 49.9077C34.7366 49.5137 35.1061 49.3448 35.5 49.3448V48.9948ZM34.1226 49.674L34.1727 49.3276L32.7254 49.1181L32.6753 49.4645L32.6252 49.8109L34.0724 50.0204L34.1226 49.674ZM32.6753 49.4645L33.0192 49.5294L33.9333 44.6862L33.5894 44.6213L33.2454 44.5564L32.3314 49.3996L32.6753 49.4645ZM33.5894 44.6213V44.9713H38.3057V44.6213V44.2713H33.5894V44.6213ZM38.3057 44.6213H37.9557V46.2907H38.3057H38.6557V44.6213H38.3057ZM38.3057 46.2907V45.9407H34.9414V46.2907V46.6407H38.3057V46.2907ZM34.9414 46.2907L34.5967 46.2298L34.3174 47.8104L34.6621 47.8713L35.0068 47.9322L35.2861 46.3516L34.9414 46.2907ZM34.6621 47.8713L34.8186 48.1843C35.1714 48.0079 35.5244 47.9229 35.8809 47.9229V47.5729V47.2229C35.4079 47.2229 34.9484 47.3368 34.5056 47.5582L34.6621 47.8713ZM35.8809 47.5729V47.9229C36.576 47.9229 37.1555 48.1711 37.6401 48.6781L37.8931 48.4362L38.1461 48.1944C37.5304 47.5503 36.7684 47.2229 35.8809 47.2229V47.5729ZM37.8931 48.4362L37.6401 48.6781C38.1184 49.1784 38.3683 49.8339 38.3683 50.6769H38.7183H39.0683C39.0683 49.6834 38.768 48.845 38.1461 48.1944L37.8931 48.4362ZM38.7183 50.6769H38.3683C38.3683 51.37 38.169 51.9801 37.7703 52.5191L38.0518 52.7272L38.3332 52.9353C38.8232 52.2726 39.0683 51.5158 39.0683 50.6769H38.7183ZM38.0518 52.7272L37.77 52.5196C37.2349 53.2455 36.5024 53.6087 35.5317 53.6087V53.9587V54.3087C36.7108 54.3087 37.6583 53.8509 38.3335 52.9349L38.0518 52.7272ZM35.5317 53.9587V53.6087C34.7378 53.6087 34.1235 53.397 33.6576 53.0003L33.4307 53.2668L33.2037 53.5333C33.8212 54.0591 34.6075 54.3087 35.5317 54.3087V53.9587ZM33.4307 53.2668L33.6576 53.0003C33.1886 52.6009 32.9018 52.0627 32.8063 51.3598L32.4595 51.4069L32.1127 51.454C32.2287 52.3084 32.5894 53.0101 33.2037 53.5333L33.4307 53.2668Z" fill="white"/>
<defs>
<linearGradient id="paint0_linear_73_302" x1="35.5" y1="31" x2="35.5" y2="67" gradientUnits="userSpaceOnUse">
<stop stop-color="#CFEAE2"/>
<stop offset="0.5" stop-color="#F2F2F2"/>
<stop offset="1" stop-color="#7DBCA2"/>
</linearGradient>
<linearGradient id="paint1_linear_73_302" x1="35.5" y1="38" x2="35.5" y2="60" gradientUnits="userSpaceOnUse">
<stop stop-color="white"/>
<stop offset="0.7" stop-color="#9FC2B7"/>
</linearGradient>
<linearGradient id="paint2_linear_73_302" x1="27" y1="65" x2="44" y2="65" gradientUnits="userSpaceOnUse">
<stop stop-color="#7DBCA2"/>
<stop offset="1" stop-color="#58B195"/>
</linearGradient>
</defs>
</svg>
