<svg width="50" height="50" viewBox="0 0 50 50" fill="none" xmlns="http://www.w3.org/2000/svg">
<path opacity="0.96" d="M31.6667 5.41663H18.3333C14.8816 5.41663 12.0833 8.21485 12.0833 11.6666V38.3333C12.0833 41.7851 14.8816 44.5833 18.3333 44.5833H31.6667C35.1184 44.5833 37.9167 41.7851 37.9167 38.3333V11.6666C37.9167 8.21485 35.1184 5.41663 31.6667 5.41663Z" stroke="#676D67" stroke-width="2.5"/>
<path opacity="0.2" d="M25 47.5C32.3638 47.5 38.3333 46.0077 38.3333 44.1667C38.3333 42.3258 32.3638 40.8334 25 40.8334C17.6362 40.8334 11.6667 42.3258 11.6667 44.1667C11.6667 46.0077 17.6362 47.5 25 47.5Z" fill="#B99E9E"/>
<path d="M31.6667 6.66663H18.3333C15.5719 6.66663 13.3333 8.9052 13.3333 11.6666V38.3333C13.3333 41.0947 15.5719 43.3333 18.3333 43.3333H31.6667C34.4281 43.3333 36.6667 41.0947 36.6667 38.3333V11.6666C36.6667 8.9052 34.4281 6.66663 31.6667 6.66663Z" fill="url(#paint0_linear_73_447)" stroke="#3C977B" stroke-width="1.66667"/>
<path d="M20 10H30H20Z" fill="black"/>
<path d="M20 10H30" stroke="#CFEAE2" stroke-width="1.16667" stroke-linecap="round"/>
<path opacity="0.95" d="M31.25 11.6666H18.75C16.9091 11.6666 15.4167 13.159 15.4167 15V31.6666C15.4167 33.5076 16.9091 35 18.75 35H31.25C33.091 35 34.5833 33.5076 34.5833 31.6666V15C34.5833 13.159 33.091 11.6666 31.25 11.6666Z" fill="url(#paint1_linear_73_447)"/>
<path opacity="0.6" d="M16.6667 12.5C22.2222 9.72218 27.7778 9.72218 33.3333 12.5" stroke="#676D67" stroke-width="1.66667" stroke-linecap="round"/>
<path opacity="0.4" d="M18.3333 15C22.7778 11.6667 27.2222 11.6667 31.6667 15" stroke="#F2F2F2" stroke-width="1.08333" stroke-linecap="round"/>
<path opacity="0.7" d="M18.3333 32.5C22.7778 34.7222 27.2222 34.7222 31.6667 32.5" stroke="#CFEAE2" stroke-linecap="round"/>
<path opacity="0.85" d="M25 39.6667C25.7364 39.6667 26.3333 39.0697 26.3333 38.3333C26.3333 37.597 25.7364 37 25 37C24.2636 37 23.6667 37.597 23.6667 38.3333C23.6667 39.0697 24.2636 39.6667 25 39.6667Z" fill="#F2F2F2"/>
<defs>
<linearGradient id="paint0_linear_73_447" x1="25" y1="6.66663" x2="25" y2="43.3333" gradientUnits="userSpaceOnUse">
<stop stop-color="#7DBCA2"/>
<stop offset="0.55" stop-color="#58B195"/>
<stop offset="1" stop-color="#3C977B"/>
</linearGradient>
<linearGradient id="paint1_linear_73_447" x1="15.4167" y1="11.6666" x2="34.5833" y2="35" gradientUnits="userSpaceOnUse">
<stop stop-color="white"/>
<stop offset="0.6" stop-color="#F2F2F2"/>
<stop offset="1" stop-color="#CFEAE2"/>
</linearGradient>
</defs>
</svg>
